<svg width="31" height="31" viewBox="0 0 31 31" fill="none" xmlns="http://www.w3.org/2000/svg">
<path d="M16.6562 20.125L21.2812 15.5M21.2812 15.5L16.6562 10.875M21.2812 15.5H9.71875M29.375 15.5C29.375 17.3221 29.0161 19.1263 28.3188 20.8097C27.6215 22.4931 26.5995 24.0227 25.3111 25.3111C24.0227 26.5995 22.4931 27.6215 20.8097 28.3188C19.1263 29.0161 17.3221 29.375 15.5 29.375C13.6779 29.375 11.8737 29.0161 10.1903 28.3188C8.50687 27.6215 6.97731 26.5995 5.68889 25.3111C4.40048 24.0227 3.37846 22.4931 2.68117 20.8097C1.98389 19.1263 1.625 17.3221 1.625 15.5C1.625 11.8201 3.08683 8.29096 5.68889 5.68889C8.29096 3.08683 11.8201 1.625 15.5 1.625C19.1799 1.625 22.709 3.08683 25.3111 5.68889C27.9132 8.29096 29.375 11.8201 29.375 15.5Z" stroke="white" stroke-width="3" stroke-linecap="round" stroke-linejoin="round"/>
</svg>
